<?xml version="1.0" encoding="UTF-8"?>
<svg version="1.1" xmlns="http://www.w3.org/2000/svg" width="282" height="400">
<path d="M0 0 C1.01825867 -0.01921509 2.03651733 -0.03843018 3.08563232 -0.05822754 C4.18562561 -0.06672729 5.2856189 -0.07522705 6.41894531 -0.08398438 C7.55229309 -0.09538452 8.68564087 -0.10678467 9.85333252 -0.11853027 C12.25407169 -0.13743471 14.65486282 -0.15050002 17.05566406 -0.15820312 C20.7193531 -0.17758772 24.38078456 -0.23961044 28.04394531 -0.30273438 C30.37726533 -0.31579767 32.71060139 -0.32629735 35.04394531 -0.33398438 C36.13584167 -0.35867798 37.22773804 -0.38337158 38.35272217 -0.40881348 C43.55519154 -0.37852224 47.01884978 -0.23320964 51.06445312 3.234375 C52.05006495 4.25594438 53.02838388 5.28463309 53.99707031 6.32226562 C54.94582031 7.00289062 55.89457031 7.68351562 56.87207031 8.38476562 C59.43720599 10.7235658 59.41434635 11.9924144 59.99707031 15.32226562 C60.69832031 15.94101562 61.39957031 16.55976562 62.12207031 17.19726562 C63.99707031 19.32226562 63.99707031 19.32226562 63.93457031 22.57226562 C62.91189674 26.66295991 61.62246974 30.43856787 59.99707031 34.32226562 C59.52914062 35.45921875 59.52914062 35.45921875 59.05175781 36.61914062 C57.49561144 40.27057071 56.10684419 43.18360388 53.62207031 46.32226562 C51.68927665 49.89050007 52.05604 51.64834591 53.14550781 55.47460938 C53.42652344 56.41433594 53.70753906 57.3540625 53.99707031 58.32226562 C54.53844457 60.40032599 55.05951183 62.48279984 55.57714844 64.56689453 C55.93753628 66.01716496 56.30333818 67.46610181 56.67480469 68.91357422 C57.99707031 74.09910083 57.99707031 74.09910083 57.99707031 76.32226562 C59.11082031 76.44601563 60.22457031 76.56976563 61.37207031 76.69726562 C64.99707031 77.32226563 64.99707031 77.32226563 66.99707031 79.32226562 C67.05956663 81.92330295 67.00079355 84.36312842 66.80957031 86.94726562 C66.73609375 88.03116577 66.73609375 88.03116577 66.66113281 89.13696289 C65.73176305 100.58757289 65.73176305 100.58757289 61.99707031 104.32226562 C61.8621764 106.59148099 61.76513036 108.86297232 61.68457031 111.13476562 C61.37073438 117.33265701 60.22618177 122.56942579 58.03222656 128.41210938 C56.95444805 131.44209049 56.24722511 134.43263029 55.55957031 137.57226562 C53.7130431 145.20790519 50.12657656 151.30721506 43.99707031 156.32226562 C41.06138565 157.83218775 38.07165054 159.12324632 34.99707031 160.32226562 C39.87819296 162.95807186 44.66932983 164.93457948 49.93457031 166.69726562 C55.99726563 168.81532264 60.98249222 171.32329828 65.99707031 175.32226562 C66.53605957 175.75176514 67.07504883 176.18126465 67.63037109 176.6237793 C71.67252038 179.94930125 74.96812022 183.48019463 77.99707031 187.75976562 C78.45871582 188.40115479 78.92036133 189.04254395 79.39599609 189.70336914 C84.71461181 197.18600866 89.67913573 204.90545927 94.65332031 212.61914062 C97.92982122 217.69554099 101.25136142 222.74022272 104.59082031 227.77539062 C106.03917658 229.96387052 107.48716543 232.15259318 108.93511963 234.34133911 C109.88943101 235.7814401 110.84559505 237.22031518 111.8036499 238.65792847 C113.15195906 240.68197935 114.49314384 242.7105867 115.83300781 244.74023438 C116.23958618 245.34655701 116.64616455 245.95287964 117.06506348 246.57757568 C120.64986131 252.03385741 120.64986131 252.03385741 120.99707031 255.32226562 C120.17481069 257.7890445 119.15776682 260.0008726 117.99707031 262.32226562 C118.51237063 264.51253188 118.51237063 264.51253188 119.37207031 266.94726562 C123.42236514 279.89341347 123.89064893 296.09792077 118.30957031 308.69726562 C114.65036157 315.21607823 108.96922552 318.91370292 101.99707031 321.32226562 C98.05988896 322.30656096 94.32986441 322.35667858 90.29394531 322.34179688 C89.30233398 322.33897705 88.31072266 322.33615723 87.2890625 322.33325195 C86.15452637 322.32781372 86.15452637 322.32781372 84.99707031 322.32226562 C85.44427378 326.86510008 85.90678403 331.40625048 86.37207031 335.94726562 C86.49839844 337.23246094 86.62472656 338.51765625 86.75488281 339.84179688 C86.88378906 341.08574219 87.01269531 342.3296875 87.14550781 343.61132812 C87.31832275 345.32376709 87.31832275 345.32376709 87.49462891 347.07080078 C87.90773043 350.3679558 87.90773043 350.3679558 89.1015625 353.56860352 C89.99707031 356.32226562 89.99707031 356.32226562 89.17675781 359.09179688 C85.89852844 362.44640076 82.66602256 362.52042342 78.12207031 363.00976562 C77.19064209 363.12368652 76.25921387 363.23760742 75.29956055 363.35498047 C72.20143561 363.71416133 69.10178666 364.02564881 65.99707031 364.32226562 C64.9785498 364.4213623 63.9600293 364.52045898 62.91064453 364.62255859 C14.72314323 369.07144358 -36.10750089 369.8507779 -83.99829102 362.28320312 C-89.43321104 361.44730763 -94.54381877 361.11789456 -100.04199219 361.70507812 C-102.00292969 361.32226562 -102.00292969 361.32226562 -103.57983398 359.36621094 C-105.48891111 355.28277062 -105.58369826 351.69683846 -105.73339844 347.23632812 C-105.77345505 346.35036453 -105.81351166 345.46440094 -105.8547821 344.55158997 C-105.9802758 341.68387185 -106.08548068 338.81580224 -106.19042969 335.94726562 C-106.27370203 333.98246598 -106.35785046 332.01770328 -106.44287109 330.05297852 C-106.89660694 319.1033553 -107.28502374 308.15278138 -106.75366211 297.19775391 C-106.5690545 291.014985 -107.76130922 285.66158977 -111.00292969 280.32226562 C-113.77736262 278.25642057 -113.77736262 278.25642057 -117.00292969 277.44726562 C-121.41723831 276.04572264 -124.05663317 274.96160168 -127.00292969 271.32226562 C-128.29970305 263.74031322 -126.69730805 255.51729465 -125.37792969 248.00976562 C-125.20116699 246.9850415 -125.0244043 245.96031738 -124.84228516 244.90454102 C-121.16651285 224.45629786 -116.42820514 203.37602506 -104.00292969 186.32226562 C-103.49375 185.61714844 -102.98457031 184.91203125 -102.45996094 184.18554688 C-89.58592517 168.00558587 -66.4574565 160.06577455 -46.49511719 157.72070312 C-41.98392192 157.28369184 -37.4657735 157.00169899 -32.94042969 156.75976562 C-32.17021484 156.71658203 -31.4 156.67339844 -30.60644531 156.62890625 C-28.73872807 156.5244997 -26.87084534 156.42306016 -25.00292969 156.32226562 C-22.47745227 148.47840024 -22.47745227 148.47840024 -22.00292969 140.32226562 C-24.06395239 137.26237008 -26.23800063 135.67115137 -29.24121094 133.54882812 C-32.43707931 130.972244 -33.73302258 128.5946698 -35.56542969 124.94726562 C-37.70775583 120.7997994 -37.70775583 120.7997994 -41.29199219 118.03320312 C-42.84228847 117.57366905 -44.40846191 117.163517 -45.98730469 116.81445312 C-48.91594293 116.09932053 -50.24411749 114.71425022 -52.00292969 112.32226562 C-54.17868586 108.29711671 -54.25451527 104.85080615 -54.00292969 100.32226562 C-53.50792969 98.83726563 -53.50792969 98.83726563 -53.00292969 97.32226562 C-54.48792969 96.82726562 -54.48792969 96.82726562 -56.00292969 96.32226562 C-57.06542969 94.14257813 -57.06542969 94.14257813 -58.00292969 91.44726562 C-59.23649326 87.92132976 -60.30448845 85.87444989 -63.00292969 83.32226562 C-63.71999951 81.33977847 -64.38583382 79.33811213 -65.00292969 77.32226562 C-65.35355469 76.64164062 -65.70417969 75.96101563 -66.06542969 75.25976562 C-67.00292969 73.32226562 -67.00292969 73.32226562 -67.50292969 70.69726562 C-67.81401208 68.14700471 -67.81401208 68.14700471 -70.00292969 66.32226562 C-70.16308594 64.41210938 -70.16308594 64.41210938 -70.06542969 62.25976562 C-70.04480469 60.96039063 -70.02417969 59.66101563 -70.00292969 58.32226562 C-70.33292969 57.99226563 -70.66292969 57.66226563 -71.00292969 57.32226562 C-71.0745713 54.99391335 -70.99937789 52.68196952 -70.94042969 50.35351562 C-70.77068023 48.32617326 -70.77068023 48.32617326 -72.00292969 47.32226562 C-72.26586025 43.29066372 -72.29697813 41.76333828 -70.00292969 38.32226562 C-69.89980469 37.31164063 -69.79667969 36.30101562 -69.69042969 35.25976562 C-68.48666048 28.36545105 -64.78472102 22.16685222 -61.00292969 16.32226562 C-60.52855469 15.55914062 -60.05417969 14.79601562 -59.56542969 14.00976562 C-59.04980469 13.45289063 -58.53417969 12.89601563 -58.00292969 12.32226562 C-56.68292969 12.32226562 -55.36292969 12.32226562 -54.00292969 12.32226562 C-54.00292969 11.66226562 -54.00292969 11.00226562 -54.00292969 10.32226562 C-48.74625281 7.86676577 -43.65174714 5.73446999 -38.00292969 4.32226562 C-36.90271484 4.02642578 -36.90271484 4.02642578 -35.78027344 3.72460938 C-31.05818602 2.53423342 -27.83696322 2.44335044 -23.00292969 3.32226562 C-20.34601059 2.44311874 -20.34601059 2.44311874 -18.00292969 1.32226562 C-15.00292969 1.32226562 -15.00292969 1.32226562 -11.50292969 1.94726562 C-7.08807347 2.42028593 -4.56935772 0.069642 0 0 Z " fill="#010100" transform="translate(144.0029296875,15.677734375)"/>
<path d="M0 0 C5.03992507 0.97676424 10.14098669 1.6185395 15.22290039 2.3371582 C18.98883457 2.88615429 22.68674729 3.51062335 26.390625 4.38867188 C32.76202683 5.84940527 39.23018388 6.64676775 45.70703125 7.49023438 C46.37890472 7.57833374 47.0507782 7.66643311 47.74301147 7.75720215 C61.51830062 9.54197053 75.309935 10.42773438 89.20703125 10.42773438 C88.87703125 9.10773438 88.54703125 7.78773438 88.20703125 6.42773438 C83.75203125 5.43773437 83.75203125 5.43773437 79.20703125 4.42773438 C82.20703125 1.42773438 82.20703125 1.42773438 85.125 1.13476562 C86.20394531 1.16957031 87.28289062 1.204375 88.39453125 1.24023438 C89.48121094 1.26730469 90.56789062 1.294375 91.6875 1.32226562 C92.93466797 1.37447266 92.93466797 1.37447266 94.20703125 1.42773438 C95.1929528 3.48701394 96.17050619 5.55030125 97.14453125 7.61523438 C97.68980469 8.76378906 98.23507813 9.91234375 98.796875 11.09570312 C101.30408428 17.01994 101.38959352 22.39525038 101.39453125 28.74023438 C101.40677734 29.55685547 101.41902344 30.37347656 101.43164062 31.21484375 C101.44896434 38.46192966 100.68890037 45.45190888 96.20703125 51.42773438 C88.49417818 58.36930214 79.06839155 56.91922958 69.23339844 56.60693359 C44.26412246 55.12843661 21.92918737 45.01678248 0.89453125 32.24023438 C-17.6716776 20.96447632 -34.19050092 16.78980435 -55.79296875 16.42773438 C-56.63563586 14.68220964 -57.46676913 12.93111358 -58.29296875 11.17773438 C-58.75703125 10.20320313 -59.22109375 9.22867187 -59.69921875 8.22460938 C-60.79296875 5.42773438 -60.79296875 5.42773438 -60.79296875 1.42773438 C-41.53433151 -5.36586364 -19.75007972 -4.10995068 0 0 Z " fill="#FAD7B0" transform="translate(155.79296875,272.572265625)"/>
<path d="M0 0 C1.80307617 0.00483398 1.80307617 0.00483398 3.64257812 0.00976562 C4.88845703 0.01814453 6.13433594 0.02652344 7.41796875 0.03515625 C8.68318359 0.03966797 9.94839844 0.04417969 11.25195312 0.04882812 C14.36983985 0.06059374 17.48763008 0.07703353 20.60546875 0.09765625 C21.05664062 1.31582031 21.5078125 2.53398437 21.97265625 3.7890625 C23.14394102 6.9113416 24.37072279 9.98911116 25.73046875 13.03515625 C26.06304687 13.78667969 26.395625 14.53820312 26.73828125 15.3125 C27.47456663 17.07577505 27.47456663 17.07577505 28.60546875 18.09765625 C30.23104081 18.27762761 31.86332103 18.39770232 33.49609375 18.4921875 C55.92351443 19.95085253 72.56000011 25.51047986 90.60546875 39.09765625 C88.32202229 41.68996141 86.29841771 42.81435773 83.0703125 44 C82.17763672 44.33322266 81.28496094 44.66644531 80.36523438 45.00976562 C79.43388672 45.34814453 78.50253906 45.68652344 77.54296875 46.03515625 C75.71843634 46.71009019 73.89421641 47.38586946 72.0703125 48.0625 C71.16128174 48.39749512 70.25225098 48.73249023 69.31567383 49.07763672 C66.68855768 50.06638469 64.08800162 51.10565345 61.48828125 52.1640625 C21.12851162 68.42488603 21.12851162 68.42488603 6.15234375 63.25 C-10.32198035 54.98482039 -19.47735013 36.24466548 -26.39453125 20.09765625 C-26.85085937 19.05480469 -27.3071875 18.01195312 -27.77734375 16.9375 C-29.46116056 12.93990694 -30.39453125 10.51237434 -30.39453125 6.09765625 C-27.33268219 5.28268983 -24.26994167 4.47112378 -21.20703125 3.66015625 C-19.91055664 3.31500977 -19.91055664 3.31500977 -18.58789062 2.96289062 C-17.3262207 2.6293457 -17.3262207 2.6293457 -16.0390625 2.2890625 C-15.26925049 2.08482666 -14.49943848 1.88059082 -13.70629883 1.67016602 C-9.03184082 0.51253543 -4.83307299 -0.02290556 0 0 Z " fill="#FAD7B1" transform="translate(69.39453125,275.90234375)"/>
<path d="M0 0 C0.88313873 -0.00340393 1.76627747 -0.00680786 2.67617798 -0.01031494 C5.2140477 -0.01591074 7.75125465 -0.0054928 10.2890625 0.01171875 C11.44563103 0.01054802 11.44563103 0.01054802 12.62556458 0.00935364 C16.40541465 0.05915906 18.15291157 0.16444105 21.375 2.3125 C22.38052083 5.093666 23.22996266 7.78013984 24 10.625 C24.2165625 11.38490234 24.433125 12.14480469 24.65625 12.92773438 C26.42095983 19.19681158 27.50368425 24.74960339 27.375 31.3125 C24.4616819 30.8963117 22.50913816 30.39721884 20 28.8125 C16.80034066 26.98412324 14.0133522 26.6692012 10.375 26.3125 C10.375 27.3025 10.375 28.2925 10.375 29.3125 C12.685 29.6425 14.995 29.9725 17.375 30.3125 C17.375 30.9725 17.375 31.6325 17.375 32.3125 C16.61574219 32.51746094 15.85648437 32.72242188 15.07421875 32.93359375 C14.08035156 33.20300781 13.08648437 33.47242188 12.0625 33.75 C11.07636719 34.01683594 10.09023437 34.28367188 9.07421875 34.55859375 C7.15982474 35.09329425 5.26066385 35.68394538 3.375 36.3125 C-5.63158907 37.06667493 -13.9116165 35.47795625 -22.625 33.3125 C-22.295 32.6525 -21.965 31.9925 -21.625 31.3125 C-19.55859375 30.8984375 -19.55859375 30.8984375 -17.0625 30.6875 C-16.23621094 30.61273438 -15.40992188 30.53796875 -14.55859375 30.4609375 C-13.60146484 30.38746094 -13.60146484 30.38746094 -12.625 30.3125 C-12.13 28.8275 -12.13 28.8275 -11.625 27.3125 C-17.49768997 27.45898433 -20.86677024 28.20442443 -25.5546875 31.9765625 C-32.40170807 36.3948286 -41.72206172 37.70512272 -49.625 39.3125 C-49.46507568 38.60222656 -49.30515137 37.89195313 -49.14038086 37.16015625 C-48.62469812 34.31083198 -48.45195783 31.64254724 -48.37890625 28.75 C-48.34603516 27.70585938 -48.31316406 26.66171875 -48.27929688 25.5859375 C-48.21810193 23.4037518 -48.16080971 21.22145316 -48.10742188 19.0390625 C-48.07326172 17.99492188 -48.03910156 16.95078125 -48.00390625 15.875 C-47.9788501 14.92753906 -47.95379395 13.98007813 -47.92797852 13.00390625 C-47.60259013 10.11342957 -46.88781127 7.92574617 -45.625 5.3125 C-34.91486021 -2.76570762 -12.78395925 0.01195076 0 0 Z " fill="#F8D6AF" transform="translate(170.625,60.6875)"/>
<path d="M0 0 C1.02996094 0.51949219 2.05992187 1.03898438 3.12109375 1.57421875 C14.36736962 7.12673434 26.55959609 12.9368007 39.3125 13.3125 C43 14 43 14 44.421875 15.58203125 C46.88911083 20.00108721 47.75581392 23.96124054 47 29 C44.57557044 37.17826009 41.33102094 43.36257388 34 48 C26.0704496 51.91191153 16.50956257 50.72369078 8.25 48.375 C-4.63660764 43.90222114 -16.74369755 35.43900134 -23 23 C-23 22.01 -23 21.02 -23 20 C-19.40295666 18.20147833 -15.13235854 18.30268283 -11.1640625 17.890625 C-7.17130182 16.76673681 -6.14761718 15.5032398 -4 12 C-2.68900528 8.90526599 -2.68900528 8.90526599 -1.75 5.6875 C-1.41484375 4.61886719 -1.0796875 3.55023438 -0.734375 2.44921875 C-0.49203125 1.64097656 -0.2496875 0.83273438 0 0 Z " fill="#F9D6B0" transform="translate(128,160)"/>
<path d="M0 0 C3.46679688 0.04882812 3.46679688 0.04882812 6.93359375 0.09765625 C7.42859375 5.04765625 7.42859375 5.04765625 7.93359375 10.09765625 C7.27359375 10.09765625 6.61359375 10.09765625 5.93359375 10.09765625 C5.93359375 10.75765625 5.93359375 11.41765625 5.93359375 12.09765625 C6.57296875 12.32453125 7.21234375 12.55140625 7.87109375 12.78515625 C9.93359375 14.09765625 9.93359375 14.09765625 10.80859375 16.59765625 C10.84984375 17.42265625 10.89109375 18.24765625 10.93359375 19.09765625 C8.93359375 21.09765625 8.93359375 21.09765625 6.12109375 21.41015625 C2.61133782 21.06606253 0.78495274 20.11038024 -2.06640625 18.09765625 C-1.07640625 20.57265625 -1.07640625 20.57265625 -0.06640625 23.09765625 C-1.30003906 23.40896484 -1.30003906 23.40896484 -2.55859375 23.7265625 C-11.20420256 26.1125908 -19.43809791 28.94250323 -24.79296875 36.55078125 C-26.00262063 38.69977175 -27.09115089 40.83403723 -28.06640625 43.09765625 C-40.77417002 36.82690927 -48.7101444 29.81017996 -55.06640625 17.09765625 C-56.25336178 20.65852283 -56.41736043 24.07096649 -56.62890625 27.78515625 C-56.67208984 28.48705078 -56.71527344 29.18894531 -56.75976562 29.91210938 C-56.86557985 31.64040831 -56.96647206 33.36900735 -57.06640625 35.09765625 C-57.72640625 34.76765625 -58.38640625 34.43765625 -59.06640625 34.09765625 C-59.16953125 33.29328125 -59.27265625 32.48890625 -59.37890625 31.66015625 C-59.60578125 30.81453125 -59.83265625 29.96890625 -60.06640625 29.09765625 C-62.85738084 27.53799398 -65.57969179 26.97375974 -68.69140625 26.22265625 C-72.06640625 25.09765625 -72.06640625 25.09765625 -74.00390625 23.53515625 C-75.65769406 19.74117245 -75.74037008 16.16318002 -75.06640625 12.09765625 C-73.27246957 9.22735756 -72.08377349 7.60633987 -69.06640625 6.09765625 C-67.0078125 5.89453125 -67.0078125 5.89453125 -64.62890625 5.84765625 C-63.45521484 5.80898437 -63.45521484 5.80898437 -62.2578125 5.76953125 C-59.55413347 6.1743602 -58.82138817 7.07149636 -57.06640625 9.09765625 C-56.40640625 9.42765625 -55.74640625 9.75765625 -55.06640625 10.09765625 C-55.39640625 7.12765625 -55.72640625 4.15765625 -56.06640625 1.09765625 C-53.09640625 1.09765625 -50.12640625 1.09765625 -47.06640625 1.09765625 C-46.73640625 1.75765625 -46.40640625 2.41765625 -46.06640625 3.09765625 C-45.32390625 3.28328125 -44.58140625 3.46890625 -43.81640625 3.66015625 C-40.64958339 5.31554093 -40.26224033 6.24239814 -38.69140625 9.34765625 C-36.31838639 13.98889383 -33.50837947 17.31521217 -29.06640625 20.09765625 C-23.13031893 21.98798308 -17.52667996 21.45940377 -11.85546875 19.05078125 C-8.86712016 17.45873528 -7.71574269 16.09089646 -6.06640625 13.09765625 C-5.14764164 9.9647517 -4.3759646 6.83418053 -3.6796875 3.64453125 C-2.83434776 0.13394838 -2.83434776 0.13394838 0 0 Z " fill="#F3D1AC" transform="translate(170.06640625,102.90234375)"/>
<path d="M0 0 C0.92425781 -0.01998047 1.84851563 -0.03996094 2.80078125 -0.06054688 C9.83284341 -0.05551679 13.22676137 1.27713167 18.3125 6.1875 C20.20228691 9.76814887 20.5 12.34752708 20.5 16.4375 C18.375 19 18.375 19 15.5 20.4375 C11.9771816 20.4375 10.72608051 19.63459583 8.0625 17.3125 C5.61649859 15.15742507 5.61649859 15.15742507 2.4375 15.3125 C-0.78686346 16.19845863 -0.78686346 16.19845863 -2.3125 19.5 C-4.5 22.4375 -4.5 22.4375 -6.4296875 22.97265625 C-12.48629588 23.21366316 -17.2194783 21.21730952 -22.5 18.4375 C-23.16 18.1075 -23.82 17.7775 -24.5 17.4375 C-24.38002388 11.55866991 -22.77435289 9.06599444 -18.58203125 5.015625 C-12.48312812 0.39281663 -7.41598676 -0.05688693 0 0 Z " fill="#F1CFAA" transform="translate(172.5,133.5625)"/>
<path d="M0 0 C-0.99 0.99 -1.98 1.98 -3 3 C-1.63016497 6.16115776 -1.0109362 6.9927092 2 9 C4.27912938 9.45394552 4.27912938 9.45394552 6.6875 9.625 C7.49574219 9.69976562 8.30398437 9.77453125 9.13671875 9.8515625 C9.75160156 9.90054688 10.36648437 9.94953125 11 10 C8.78077954 12.21922046 6.55774545 14.43196956 4.3125 16.625 C1.98708851 18.77286324 1.98708851 18.77286324 1 21 C-6.13080683 21.45274964 -10.7045319 20.31410477 -17 17 C-17.66 16.67 -18.32 16.34 -19 16 C-18.89987603 11.09392561 -18.16843467 8.72793783 -14.6875 5.1875 C-9.91313033 0.66168754 -6.6081632 -0.25416012 0 0 Z " fill="#F3D1AB" transform="translate(167,135)"/>
<path d="M0 0 C0.9075 0.33 1.815 0.66 2.75 1 C8.06183796 2.55521854 13.52020695 2.16196433 19 2 C19.38999191 9.59762024 18.60758587 15.84466021 16 23 C15.34 23 14.68 23 14 23 C13.2575 21.205625 13.2575 21.205625 12.5 19.375 C9.42473029 13.18052816 4.09606805 9.91196108 -2 7 C-1.34 4.69 -0.68 2.38 0 0 Z " fill="#E9C9A5" transform="translate(183,120)"/>
<path d="M0 0 C3.45826342 -0.05789006 6.91640293 -0.09355821 10.375 -0.125 C11.35984375 -0.14175781 12.3446875 -0.15851563 13.359375 -0.17578125 C14.77089844 -0.18544922 14.77089844 -0.18544922 16.2109375 -0.1953125 C17.51490479 -0.21102295 17.51490479 -0.21102295 18.84521484 -0.22705078 C21 0 21 0 23 2 C19.64516129 8.47004608 19.64516129 8.47004608 17.25 10.4375 C13.76186648 11.30953338 10.52457997 11.6954631 7 11 C4.61290633 9.55465003 2.99584939 7.99584939 1 6 C1.66 4.68 2.32 3.36 3 2 C2.01 1.34 1.02 0.68 0 0 Z " fill="#E5C5A2" transform="translate(162,134)"/>
<path d="M0 0 C2.37080366 1.47022378 3.99577206 2.99577206 6 5 C6 5.66 6 6.32 6 7 C-0.43311296 7.09507063 -6.65758005 7.15316726 -13 6 C-13 5.34 -13 4.68 -13 4 C-5.19549642 -0.99488229 -5.19549642 -0.99488229 0 0 Z " fill="#E7C7A3" transform="translate(210,268)"/>
<path d="M0 0 C2.96175123 0.61277612 4.38058783 1.25372522 7 3 C10.47577801 3.36976362 12.30620686 3.46252876 15.25 1.5 C15.8275 1.005 16.405 0.51 17 0 C17.66 0 18.32 0 19 0 C18.4360709 3.27078876 17.54319569 4.86371562 15 7 C11.77518921 8.6124054 8.48584376 8.60679502 5 8 C2.60553585 6.56130936 0.99797988 4.99797988 -1 3 C-0.67 2.01 -0.34 1.02 0 0 Z " fill="#080605" transform="translate(164,137)"/>
<path d="M0 0 C3.7758544 0.52442422 6.22372155 1.32654667 9 4 C9 4.99 9 5.98 9 7 C6.62051228 6.82374165 5.29774151 6.30280227 3.62109375 4.59765625 C2.37884514 3.09350908 1.18623944 1.54870149 0 0 Z " fill="#17140F" transform="translate(101,115)"/>
<path d="M0 0 C2.4375 0.75 2.4375 0.75 5 2 C5.8125 4.125 5.8125 4.125 6 6 C5.01 6 4.02 6 3 6 C3 5.34 3 4.68 3 4 C2.01 4 1.02 4 0 4 C0 2.68 0 1.36 0 0 Z " fill="#C4A98A" transform="translate(155,98)"/>
<path d="M0 0 C0.99 0.33 1.98 0.66 3 1 C2.67 1.33 2.34 1.66 2 2 C2.66 2.66 3.32 3.32 4 4 C1.69 4 -0.62 4 -3 4 C-3 3.34 -3 2.68 -3 2 C-2.01 1.34 -1.02 0.68 0 0 Z " fill="#C2A789" transform="translate(200,270)"/>
</svg>
